<?xml version="1.0" encoding="utf-8"?>
<!-- Generator: Adobe Illustrator 24.2.2, SVG Export Plug-In . SVG Version: 6.00 Build 0)  -->
<svg version="1.1" id="Ebene_1" xmlns="http://www.w3.org/2000/svg" xmlns:xlink="http://www.w3.org/1999/xlink" x="0px" y="0px"
	 viewBox="0 0 244.6 99" style="enable-background:new 0 0 244.6 99;" xml:space="preserve">
<style type="text/css">
	.st0{fill:#FFFFFF;}
	.st1{opacity:0.5;fill:#FFFFFF;}
	.st2{opacity:0.5;}
</style>
<g>
	<g>
		<g>
			<g>
				<path class="st0" d="M221,49.2h-8.5V49c0-3.2,1.8-5,4.3-5c2.5,0,4.2,1.8,4.2,5V49.2z M226.4,51.9v-2.3c0-6-3.4-10.2-9.5-10.2
					c-6.1,0-9.6,3.9-9.6,10.2v3c0,7.9,5.7,10.1,9.7,10.1c3.6,0,5.2-0.2,7.8-0.7c0.7-0.1,0.8-0.4,0.8-1v-2.7c0-0.4-0.3-0.6-0.7-0.6
					h-0.1c-1.7,0.2-4.4,0.4-7.4,0.4c-3.8,0-4.8-2.8-4.8-5.1V53h13.1C226.1,53,226.4,52.6,226.4,51.9"/>
				<g>
					<path class="st0" d="M140,61.9c1,0.2,2,0.4,3.1,0.6c2,0.3,4,0.5,6,0.2c1.6-0.2,3.2-0.7,4.5-1.7c1.3-0.9,2.2-2.3,2.7-3.7
						c0.6-1.6,0.7-3.4,0.7-5.1c0-1.7,0.1-3.1-0.2-4.8c-0.4-2.9-1.8-5.6-4.5-6.9c-2.7-1.3-5.9-1.1-8.8-0.7c0-3.6,0-6.4,0-6.9v6.9l0,0
						c0-3.6,0-6.7,0-7.1c0-0.6-0.4-0.7-0.8-0.7c-1.1,0-2.6,0-3.7,0c-0.4,0-0.8,0.3-0.8,0.9c0,0.2,0,27.8,0,27.8
						C138.2,61.6,139.1,61.7,140,61.9z M143.6,58.2c0-1,0-9.1,0-14c0.2-0.1,2.9-0.3,4.1-0.3c1.3,0.1,2.2,0.5,2.8,1.2
						c0.8,1,1.1,2.4,1.2,3.7c0.1,1.5,0,3,0,4.5c0,1.1-0.2,2.3-0.7,3.3c-0.6,1.1-1.8,1.8-3,1.8C146.3,58.5,144.3,58.3,143.6,58.2z"/>
				</g>
				<g>
					<path class="st0" d="M122.1,60.7c0,0,0-27.6,0-27.8c0-0.6-0.5-0.9-0.8-0.9c-1.1,0-2.6,0-3.7,0c-0.4,0-0.8,0.1-0.8,0.7
						c0,0.4,0,3.4,0,7.1l0,0v-6.9c0,0.5,0,3.3,0,6.9c-2.9-0.4-6.1-0.6-8.8,0.7c-2.7,1.3-4.1,4-4.5,6.9c-0.2,1.6-0.2,3.2-0.2,4.8
						c0,1.7,0.1,3.5,0.7,5.1c0.5,1.5,1.4,2.8,2.7,3.7c1.3,1,2.9,1.5,4.5,1.7c2,0.2,4,0.1,6-0.2c1-0.1,2.1-0.3,3.1-0.6
						C121.3,61.7,122.2,61.6,122.1,60.7z M112.4,58.4c-1.3-0.1-2.4-0.7-3-1.8c-0.6-1-0.7-2.2-0.7-3.3c0-1.5-0.1-3,0-4.5
						c0.1-1.3,0.3-2.7,1.2-3.7c0.6-0.7,1.5-1.2,2.8-1.2c1.3-0.1,3.9,0.2,4.1,0.3c0,4.9,0,9.4,0,9.9l0,0c0,0,0-0.6,0,0c0,0,0,3.1,0,4
						C116.1,58.3,114.1,58.5,112.4,58.4z"/>
				</g>
				<g>
					<path class="st0" d="M127.5,61.8c0-1.3,0-20.2,0-21.3c0-0.6,0.4-0.9,0.8-0.9c1.1,0,2.7,0,3.8,0c0.4,0,0.8,0.3,0.8,0.9
						c0,1,0,20,0,21.3V40.5c0,1.3,0,20.2,0,21.3c0,0.6-0.4,0.9-0.8,0.9c-1.1,0-2.7,0-3.8,0C128,62.7,127.5,62.4,127.5,61.8
						c0-1.1,0-20,0-21.3"/>
					<path class="st0" d="M133.6,33.1c0,1.9-1.5,3.4-3.4,3.4c-1.9,0-3.4-1.5-3.4-3.4c0-1.9,1.5-3.4,3.4-3.4
						C132.1,29.7,133.6,31.2,133.6,33.1z"/>
				</g>
				<path class="st0" d="M80.9,58.4c0.5,1.4,1.3,2.7,2.6,3.4c1.4,0.7,3,0.9,4.6,0.9c2,0,4,0,6-0.3c1-0.1,3.8-0.7,4.3-0.9
					c0.3-0.1,0.5-0.2,0.6-0.5c0.1-0.3,0.1-1.9,0.1-2.2l0-18.4c0-0.6-0.5-0.9-0.8-0.9c-1.1,0-2.7,0-3.7,0c-0.4,0-0.8,0.3-0.8,0.9
					c0,1,0,17.5,0,17.5c0,0.2,0,0.2-0.1,0.2c-1.1,0.1-5.3,0.8-6.7-0.8c-0.4-0.5-0.7-1-0.9-1.6c-0.2-0.7-0.3-1.4-0.3-2.2
					c0,0,0-12.1,0-13.2c0-0.6-0.5-0.9-0.8-0.9c-1.1,0-2.7,0-3.8,0c-0.4,0-0.8,0.3-0.8,0.9c0,1,0,14.1,0.1,15.4
					C80.5,57.1,80.9,58.4,80.9,58.4z"/>
				<path class="st0" d="M202.5,43.9c-0.5-1.4-1.3-2.7-2.6-3.4c-1.4-0.7-3-0.9-4.6-0.9c-2,0-4,0-6,0.3c-1,0.1-3.8,0.7-4.3,0.9
					c-0.3,0.1-0.5,0.2-0.6,0.5c-0.1,0.3-0.1,1.9-0.1,2.2l0,18.4c0,0.6,0.5,0.9,0.8,0.9c1.1,0,2.7,0,3.7,0c0.4,0,0.8-0.3,0.8-0.9
					c0-1,0-17.4,0-17.4c0-0.2,0-0.2,0.1-0.2c1.1-0.1,5.3-0.8,6.7,0.8c0.4,0.5,0.7,1,0.9,1.6c0.2,0.7,0.3,1.4,0.3,2.2
					c0,0,0,12.1,0,13.1c0,0.6,0.5,0.9,0.8,0.9c1.1,0,2.7,0,3.8,0c0.4,0,0.8-0.3,0.8-0.9c0-1,0-14-0.1-15.4
					C202.9,45.2,202.5,43.9,202.5,43.9z"/>
				<path class="st0" d="M73.7,41.8c-1.9-1.8-4.6-2.4-7.3-2.4c-1.3,0-5.1,0.4-6.9,0.7c-0.5,0.1-0.8,0.4-0.8,0.9c0,0.2,0,1,0,1.8
					c0,0.6,0,1.1,0.1,1.2c0.2,0.3,0.5,0.4,0.8,0.4c1-0.1,2.4-0.2,3.4-0.2c1.9-0.1,3.2-0.1,3.8-0.1c0.7,0,1.7,0.1,2.4,0.5
					c0.6,0.3,1.3,1.1,1.4,1.8c0.1,0.6,0.1,2.8,0.1,2.9c-0.1,0-3.1,0-4.6,0.1c-3.1,0.2-7,0.9-8.3,3.9c-0.6,1.4-0.6,3.1-0.4,4.7
					c0.3,1.7,1.2,2.9,2.8,3.8c1.9,1.1,4.1,1.2,6.3,1.1c5.5-0.2,8.9-0.9,9.3-1.2c0.3-0.2,0.4-0.5,0.4-0.8l0-5.9v-6.7l0-1.1
					C76.1,44.7,74.6,42.7,73.7,41.8z M70.7,58.1c0,0.1-2.4,0.3-3.6,0.3c-0.7,0-3-0.1-3.7-0.9C63,57,63,55.8,63.1,55
					c0.1-0.7,0.5-1.2,1.2-1.6c0.8-0.4,2.6-0.5,3.8-0.5c0.6,0,2.6,0,2.7,0C70.8,53,70.8,58.1,70.7,58.1z"/>
				<path class="st0" d="M174.8,49.2h-8.5V49c0-3.2,1.8-5,4.3-5c2.5,0,4.2,1.8,4.2,5V49.2z M180.1,51.9v-2.3c0-6-3.4-10.2-9.5-10.2
					c-6.1,0-9.6,3.9-9.6,10.2v3c0,7.9,5.7,10.1,9.7,10.1c3.6,0,5.2-0.2,7.8-0.7c0.7-0.1,0.8-0.4,0.8-1v-2.7c0-0.4-0.3-0.6-0.7-0.6
					h-0.1c-1.7,0.2-4.4,0.4-7.4,0.4c-3.8,0-4.8-2.8-4.8-5.1V53h13.1C179.8,53,180.1,52.6,180.1,51.9"/>
			</g>
			<g>
				<path class="st0" d="M131.6,80.5c0,0.9-0.3,1.6-1,2.1c-0.7,0.5-1.5,0.8-2.7,0.8c-1.2,0-2.2-0.2-2.8-0.5v-1.2
					c0.4,0.2,0.9,0.3,1.4,0.4c0.5,0.1,1,0.2,1.5,0.2c0.8,0,1.4-0.2,1.8-0.5c0.4-0.3,0.6-0.7,0.6-1.3c0-0.4-0.1-0.6-0.2-0.9
					c-0.1-0.2-0.4-0.4-0.7-0.6c-0.3-0.2-0.8-0.4-1.5-0.7c-1-0.3-1.6-0.7-2-1.2c-0.4-0.5-0.6-1.1-0.6-1.8c0-0.8,0.3-1.4,0.9-1.9
					c0.6-0.5,1.4-0.7,2.4-0.7c1,0,2,0.2,2.8,0.6l-0.4,1c-0.8-0.4-1.7-0.5-2.5-0.5c-0.6,0-1.1,0.1-1.5,0.4c-0.4,0.3-0.5,0.6-0.5,1.1
					c0,0.4,0.1,0.6,0.2,0.9c0.1,0.2,0.4,0.4,0.7,0.6c0.3,0.2,0.8,0.4,1.4,0.6c1.1,0.4,1.8,0.8,2.2,1.2
					C131.4,79.2,131.6,79.8,131.6,80.5z"/>
				<path class="st0" d="M140.1,79.4c0,1.3-0.3,2.2-0.9,2.9c-0.6,0.7-1.5,1.1-2.6,1.1c-0.7,0-1.3-0.2-1.8-0.5
					c-0.5-0.3-0.9-0.8-1.2-1.4c-0.3-0.6-0.4-1.3-0.4-2.1c0-1.3,0.3-2.2,0.9-2.9s1.5-1.1,2.6-1.1c1.1,0,1.9,0.4,2.6,1.1
					C139.8,77.2,140.1,78.2,140.1,79.4z M134.3,79.4c0,1,0.2,1.7,0.6,2.2c0.4,0.5,1,0.8,1.7,0.8c0.8,0,1.3-0.3,1.7-0.8
					c0.4-0.5,0.6-1.3,0.6-2.3c0-1-0.2-1.7-0.6-2.2c-0.4-0.5-1-0.8-1.8-0.8c-0.8,0-1.3,0.3-1.7,0.8C134.5,77.6,134.3,78.4,134.3,79.4
					z"/>
				<path class="st0" d="M147.1,79.3c0.2-0.3,0.5-0.7,0.9-1.1l2.5-2.6h1.4l-3.1,3.3l3.3,4.4h-1.4l-2.7-3.6l-0.9,0.8v2.9h-1.2V72.3
					h1.2v5.8C147.1,78.4,147.1,78.8,147.1,79.3L147.1,79.3z"/>
				<path class="st0" d="M154.7,83.2h-1.2V72.3h1.2V83.2z"/>
				<path class="st0" d="M157,73.5c0-0.3,0.1-0.5,0.2-0.6c0.1-0.1,0.3-0.2,0.5-0.2c0.2,0,0.3,0.1,0.5,0.2c0.1,0.1,0.2,0.3,0.2,0.6
					c0,0.3-0.1,0.5-0.2,0.6c-0.1,0.1-0.3,0.2-0.5,0.2c-0.2,0-0.4-0.1-0.5-0.2C157.1,73.9,157,73.7,157,73.5z M158.3,83.2h-1.2v-7.7
					h1.2V83.2z"/>
				<path class="st0" d="M166,83.2v-5c0-0.6-0.1-1.1-0.4-1.4c-0.3-0.3-0.7-0.5-1.3-0.5c-0.8,0-1.4,0.2-1.8,0.7
					c-0.4,0.4-0.6,1.2-0.6,2.2v4h-1.2v-7.7h0.9l0.2,1.1h0.1c0.2-0.4,0.6-0.7,1-0.9c0.4-0.2,0.9-0.3,1.4-0.3c0.9,0,1.6,0.2,2.1,0.7
					c0.5,0.4,0.7,1.2,0.7,2.1v5H166z"/>
				<path class="st0" d="M175.9,75.5v0.7l-1.4,0.2c0.1,0.2,0.2,0.4,0.4,0.6c0.1,0.3,0.2,0.6,0.2,0.9c0,0.8-0.3,1.4-0.8,1.8
					s-1.2,0.7-2.1,0.7c-0.2,0-0.4,0-0.6-0.1c-0.5,0.3-0.7,0.6-0.7,1c0,0.2,0.1,0.4,0.3,0.5c0.2,0.1,0.5,0.2,0.9,0.2h1.4
					c0.8,0,1.5,0.2,1.9,0.5c0.4,0.4,0.7,0.9,0.7,1.5c0,0.9-0.3,1.5-1,2c-0.7,0.4-1.7,0.7-3,0.7c-1,0-1.8-0.2-2.3-0.6
					c-0.5-0.4-0.8-0.9-0.8-1.6c0-0.5,0.1-0.9,0.4-1.2c0.3-0.3,0.7-0.6,1.3-0.7c-0.2-0.1-0.4-0.2-0.5-0.4c-0.1-0.2-0.2-0.4-0.2-0.7
					c0-0.3,0.1-0.5,0.2-0.7c0.2-0.2,0.4-0.4,0.7-0.6c-0.4-0.2-0.7-0.4-1-0.8c-0.3-0.4-0.4-0.8-0.4-1.3c0-0.8,0.3-1.5,0.8-2
					c0.5-0.5,1.2-0.7,2.2-0.7c0.4,0,0.8,0,1.1,0.1H175.9z M169.8,84.5c0,0.4,0.2,0.7,0.5,0.9c0.4,0.2,0.9,0.3,1.5,0.3
					c1,0,1.7-0.1,2.2-0.4c0.5-0.3,0.7-0.7,0.7-1.2c0-0.4-0.1-0.7-0.4-0.9c-0.3-0.2-0.7-0.2-1.5-0.2h-1.4c-0.5,0-0.9,0.1-1.2,0.4
					C169.9,83.7,169.8,84.1,169.8,84.5z M170.4,78c0,0.5,0.2,0.9,0.5,1.2c0.3,0.3,0.7,0.4,1.3,0.4c1.1,0,1.7-0.6,1.7-1.7
					c0-1.2-0.6-1.7-1.7-1.7c-0.5,0-1,0.1-1.3,0.4C170.5,77,170.4,77.4,170.4,78z"/>
				<path class="st0" d="M180,82.4c0.2,0,0.4,0,0.6,0c0.2,0,0.3-0.1,0.5-0.1v0.9c-0.1,0.1-0.3,0.1-0.6,0.2c-0.2,0-0.5,0.1-0.7,0.1
					c-1.5,0-2.2-0.8-2.2-2.4v-4.6h-1.1v-0.6l1.1-0.5l0.5-1.6h0.7v1.8h2.2v0.9h-2.2V81c0,0.5,0.1,0.8,0.3,1.1
					C179.3,82.3,179.6,82.4,180,82.4z"/>
				<path class="st0" d="M191,77.9h3.5v5c-0.5,0.2-1.1,0.3-1.7,0.4c-0.6,0.1-1.2,0.1-2,0.1c-1.6,0-2.8-0.5-3.6-1.4
					c-0.9-0.9-1.3-2.2-1.3-3.9c0-1.1,0.2-2,0.6-2.8c0.4-0.8,1-1.4,1.9-1.8c0.8-0.4,1.8-0.6,2.8-0.6c1.1,0,2.1,0.2,3.1,0.6l-0.5,1.1
					c-0.9-0.4-1.8-0.6-2.7-0.6c-1.3,0-2.2,0.4-2.9,1.1c-0.7,0.7-1.1,1.8-1.1,3.1c0,1.4,0.3,2.4,1,3.2c0.7,0.7,1.7,1.1,3,1.1
					c0.7,0,1.4-0.1,2.1-0.2v-3.2H191V77.9z"/>
				<path class="st0" d="M198,83.2h-1.2V72.3h1.2V83.2z"/>
				<path class="st0" d="M201.5,75.5v5c0,0.6,0.1,1.1,0.4,1.4c0.3,0.3,0.7,0.5,1.3,0.5c0.8,0,1.4-0.2,1.8-0.7
					c0.4-0.4,0.6-1.2,0.6-2.2v-4h1.2v7.7h-1l-0.2-1h-0.1c-0.2,0.4-0.6,0.7-1,0.9c-0.4,0.2-0.9,0.3-1.5,0.3c-0.9,0-1.6-0.2-2.1-0.7
					c-0.5-0.4-0.7-1.2-0.7-2.1v-5H201.5z M201.6,73.5c0-0.2,0.1-0.4,0.2-0.5c0.1-0.1,0.3-0.2,0.4-0.2c0.2,0,0.3,0.1,0.5,0.2
					c0.1,0.1,0.2,0.3,0.2,0.5c0,0.2-0.1,0.4-0.2,0.5c-0.1,0.1-0.3,0.2-0.5,0.2c-0.2,0-0.3-0.1-0.4-0.2
					C201.7,73.9,201.6,73.7,201.6,73.5z M204.3,73.5c0-0.2,0.1-0.4,0.2-0.5c0.1-0.1,0.3-0.2,0.4-0.2c0.2,0,0.3,0.1,0.5,0.2
					c0.1,0.1,0.2,0.3,0.2,0.5c0,0.2-0.1,0.4-0.2,0.5c-0.1,0.1-0.3,0.2-0.5,0.2c-0.2,0-0.3-0.1-0.4-0.2
					C204.3,73.9,204.3,73.7,204.3,73.5z"/>
				<path class="st0" d="M212.3,83.4c-1.1,0-2-0.3-2.6-1c-0.6-0.7-0.9-1.7-0.9-2.9c0-1.3,0.3-2.3,0.9-3c0.6-0.7,1.5-1.1,2.7-1.1
					c0.4,0,0.7,0,1.1,0.1c0.4,0.1,0.7,0.2,0.9,0.3l-0.4,1c-0.3-0.1-0.5-0.2-0.8-0.3c-0.3-0.1-0.6-0.1-0.8-0.1c-1.6,0-2.3,1-2.3,3
					c0,0.9,0.2,1.7,0.6,2.2c0.4,0.5,0.9,0.8,1.7,0.8c0.6,0,1.3-0.1,2-0.4v1C213.8,83.2,213.1,83.4,212.3,83.4z"/>
				<path class="st0" d="M217.3,79.3c0.2-0.3,0.5-0.7,0.9-1.1l2.5-2.6h1.4l-3.1,3.3l3.3,4.4h-1.4l-2.7-3.6l-0.9,0.8v2.9h-1.2V72.3
					h1.2v5.8C217.3,78.4,217.3,78.8,217.3,79.3L217.3,79.3z"/>
				<path class="st0" d="M223.5,82.5c0-0.6,0.3-1,0.8-1c0.3,0,0.5,0.1,0.6,0.2c0.1,0.2,0.2,0.4,0.2,0.7c0,0.3-0.1,0.5-0.2,0.7
					c-0.1,0.2-0.4,0.2-0.6,0.2c-0.2,0-0.4-0.1-0.6-0.2C223.6,83.1,223.5,82.8,223.5,82.5z M224.7,80.4H224l-0.4-7.4h1.5L224.7,80.4z
					"/>
			</g>
		</g>
	</g>
	<g>
		<g>
			<path class="st1" d="M43.3,74.3c-1.8-3.5-3-7.3-3.6-11.2c-0.3-1.9-0.4-3.6-0.3-4.6c0.1-1.1,1.5-1.3,1.9-0.5
				c0.3,0.7,0.6,1.8,0.8,2.5c2,6.5,6.5,12.1,12.3,15.7c6.2,3.9,13.7,5.4,20.9,4.3c0.5-0.1,1.3-0.2,1.8-0.3c1.2-0.2,1.8,1.5,0.5,2.1
				c-0.4,0.2-3,1.1-4,1.3c-3.8,1.1-7.9,1.7-11.9,1.6C54.1,85.2,46.8,81.3,43.3,74.3"/>
			<g class="st2">
				<path class="st0" d="M34.2,60C33.4,39.1,50.3,21.5,72,20.7c3.4-0.1,6.6,0.2,9.8,0.8c1.3,0.3,1.8-1.5,0.7-2
					c-5.6-2.6-12-4-18.6-3.8c-21.6,0.8-38.5,18.3-37.7,39.2c0.4,10.4,5.1,19.6,12.3,26.1c1.2,1.1,3.3,0.6,1.9-1.6
					C36.6,73.8,34.4,67.1,34.2,60z"/>
			</g>
			<path class="st0" d="M26.1,54.9c-0.7-18.6,12.6-34.5,30.9-38.3c2.2-0.5,4.5-0.8,6.9-0.8c0.1,0,0.1,0,0.2,0c1,0,1.4-0.6,1.4-1.1
				c0-0.6-0.4-1.2-1.3-1.3c-2.4-0.4-6.6-1-9.8-0.9c-21,0.8-36.8,16.2-36,36.9c0.5,13.7,8.8,25.6,20.1,31.8c-0.3-0.2-0.5-0.5-0.8-0.7
				C30.8,73.8,26.5,64.8,26.1,54.9z"/>
		</g>
	</g>
</g>
</svg>
